# xmcd
#
# Track frame offsets: 
#        150
#        15105
#        29626
#        44213
#        57089
#        71698
#        86722
#        101461
#        115096
#        129599
#        143721
#        157664
#        171124
#        185545
#
# Disc length: 2658 seconds
#
# Revision: 0
# Processed by: cddbd v1.5.2PL0 Copyright (c) Steve Scherf et al.
# Submitted via: ExactAudioCopy v0.99pb5
#
DISCID=b60a600e
DTITLE=สุรพล สมบัติเจริญ - น้ำตาจ่าโท
DYEAR=1900
DGENRE=Country
TTITLE0=น้ำตาจ่าโท
TTITLE1=น้ำตาเมียหลวง (ผ่องศรี วรนุช)
TTITLE2=น้ำตาผัว
TTITLE3=ผมชักจะเบื่อคุณ
TTITLE4=ดรรชนีไฉไล
TTITLE5=สิบนิ้วขอขมา
TTITLE6=หัวอกจราจร
TTITLE7=สาวสวนแตง
TTITLE8=แตงเถาตาย
TTITLE9=พี่แก่แล้ว
TTITLE10=พี่ยังไม่แก่หรอกน้อง
TTITLE11=แก่จะตายอยู่แล้ว (ผ่องศรี วรนุช)
TTITLE12=อัฐยายขนมยาย
TTITLE13=อโหสิ
EXTD=
EXTT0=
EXTT1=
EXTT2=
EXTT3=
EXTT4=
EXTT5=
EXTT6=
EXTT7=
EXTT8=
EXTT9=
EXTT10=
EXTT11=
EXTT12=
EXTT13=
PLAYORDER=
